<svg xmlns="http://www.w3.org/2000/svg" viewBox="0 0 16 13.48"><defs><style>.cls-1{fill:#2010e2;stroke:#2010e2;stroke-linecap:round;stroke-miterlimit:10;}</style></defs><g id="Layer_2" data-name="Layer 2"><g id="Layer_1-2" data-name="Layer 1"><path class="cls-1" d="M8,2.3l.71-.59C10.32.32,12.06.12,13.58,1.16a4.15,4.15,0,0,1,1.61,5,8.88,8.88,0,0,1-2,3,57.83,57.83,0,0,1-4.82,3.68.74.74,0,0,1-.67.08A17.26,17.26,0,0,1,1.45,7.56a4.43,4.43,0,0,1-.31-5,3.8,3.8,0,0,1,6-1L8,2.3M8,3,6.92,2.09a3.28,3.28,0,0,0-4.13-.54A3.69,3.69,0,0,0,1.24,5.81,8.43,8.43,0,0,0,2.57,8.14a17.09,17.09,0,0,0,5,4.1.88.88,0,0,0,.79,0A53.42,53.42,0,0,0,13,8.56a7.79,7.79,0,0,0,1.73-2.84,3.62,3.62,0,0,0-1.58-4.18,3.27,3.27,0,0,0-4.07.51L8,3"/></g></g></svg>